<svg version="1.1" xmlns="http://www.w3.org/2000/svg" viewBox="0 0 130 130" xml:space="preserve">
<style type="text/css">.st0{fill:#ffc61a;}</style>
	<path class="st0" d="M70.2,92.6l-0.2-0.7c-0.2-0.6-0.5-1.1-1-1.6l-0.5-0.5l6.3-11l-0.9-0.5c-2.7-1.5-5.8-2.4-8.9-2.4
		c-3.2,0-6.3,0.8-8.9,2.4l-0.9,0.5l6.3,11L61,90.3c-0.4,0.5-0.7,1-1,1.6l-0.2,0.7l-12.7,0l0,1.1c0,3.1,0.8,6.2,2.4,8.9
		c1.6,2.7,3.8,5,6.5,6.5l0.9,0.5l6.3-11l0.7,0.1c0.3,0.1,0.7,0.1,0.9,0.1c0.3,0,0.6,0,1-0.1l0.7-0.1l6.3,11l0.9-0.5
		c2.7-1.6,5-3.8,6.5-6.5c1.6-2.7,2.4-5.8,2.4-8.9l0-1.1L70.2,92.6z M58.1,79.5l1.1-0.4C61,78.4,63,78,65,78c2,0,4,0.4,5.8,1.1
		l1.1,0.4l-5.2,9.1L66,88.5c-0.4-0.1-0.7-0.1-1-0.1c-0.3,0-0.6,0-1,0.1l-0.7,0.1L58.1,79.5z M56.2,106.7l-0.9-0.7
		c-1.6-1.2-2.9-2.7-3.9-4.5c-1-1.7-1.7-3.6-1.9-5.6l-0.2-1.2l10.5,0l0.2,0.7c0.2,0.6,0.5,1.2,1,1.6l0.5,0.5L56.2,106.7z M65,96.8
		c-1.7,0-3.1-1.4-3.1-3.1s1.4-3.1,3.1-3.1s3.1,1.4,3.1,3.1S66.7,96.8,65,96.8z M80.5,95.9c-0.3,2-0.9,3.9-1.9,5.6
		c-1,1.7-2.3,3.2-3.9,4.5l-0.9,0.7l-5.3-9.1l0.5-0.5c0.4-0.5,0.7-1.1,1-1.7l0.2-0.7l10.5,0L80.5,95.9z"/>
	<path class="st0" d="M129,69.5h-15.7l-0.3-0.6c-2-4.1-5.9-7-10.4-7.7l-0.9-0.1v-7.3c0-2.9-2.4-5.3-5.3-5.3h-4.2
		c-2.9,0-5.3,2.4-5.3,5.3v7.3h-6.2V49.6c0-2.9-2.4-5.3-5.3-5.3h-3.1V23.3h18.1c5.4,0,9.7-4.4,9.7-9.7s-4.4-9.7-9.7-9.7H39.5
		c-5.4,0-9.7,4.4-9.7,9.7s4.4,9.7,9.7,9.7h18.1v21.1h-3.1c-2.9,0-5.3,2.4-5.3,5.3v11.5H43v-7.3c0-2.9-2.4-5.3-5.3-5.3h-4.2
		c-2.9,0-5.3,2.4-5.3,5.3v7.3l-0.9,0.1c-4.5,0.7-8.4,3.5-10.4,7.7l-0.3,0.6H1v2.2h15l-0.2,1.2c-0.1,0.8-0.2,1.4-0.2,2v37.8
		c0,0.6,0.1,1.2,0.2,2l0.2,1.2H1v2.2h15.7l0.3,0.6c2.3,4.7,7.1,7.8,12.3,7.8h71.3c5.2,0,10.1-3.1,12.3-7.8l0.3-0.6H129v-2.2h-15
		l0.2-1.2c0.1-0.7,0.2-1.4,0.2-2V74.8c0-0.6-0.1-1.2-0.2-2l-0.2-1.2h15V69.5z M89.2,53.8c0-1.7,1.4-3.1,3.1-3.1h4.2
		c1.7,0,3.1,1.4,3.1,3.1v7.3H89.2V53.8z M39.5,21.2c-4.2,0-7.7-3.5-7.7-7.7c0-4.2,3.5-7.7,7.7-7.7h50.9c4.2,0,7.7,3.5,7.7,7.7
		c0,4.2-3.5,7.7-7.7,7.7H39.5z M70.2,23.3v21.1H59.8V23.3H70.2z M51.4,49.6c0-1.7,1.4-3.1,3.1-3.1h21c1.7,0,3.1,1.4,3.1,3.1v11.5
		H51.4V49.6z M30.4,53.8c0-1.7,1.4-3.1,3.1-3.1h4.2c1.7,0,3.1,1.4,3.1,3.1v7.3H30.4V53.8z M112.2,77.9H108v2.2h4.2v27.2H108v2.2h4.2
		v3.1c0,6.3-5.2,11.5-11.5,11.5H29.3c-6.3,0-11.5-5.2-11.5-11.5v-3.1H22v-2.2h-4.2V80.1H22v-2.2h-4.2v-3.1c0-6.3,5.2-11.5,11.5-11.5
		h71.3c6.3,0,11.5,5.2,11.5,11.5V77.9z"/>
</svg>