<svg xmlns="http://www.w3.org/2000/svg" width="98" height="98" fill="none"><g fill="#D9D9D9" clip-path="url(#a)"><path d="M88 4h6v6h-6zm0 14h6v6h-6zm0 14h6v6h-6zm0 14h6v6h-6zm0 14h6v6h-6zm0 14h6v6h-6zm0 14h6v6h-6z"/><g clip-path="url(#b)"><path d="M4 88h6v6H4zm14 0h6v6h-6zm14 0h6v6h-6zm14 0h6v6h-6zm14 0h6v6h-6zm14 0h6v6h-6z"/></g><path d="M74 4h6v6h-6zm0 14h6v6h-6zm0 14h6v6h-6zm0 14h6v6h-6zm0 14h6v6h-6zM4 74h6v6H4zm14 0h6v6h-6zm14 0h6v6h-6zm14 0h6v6h-6zm14 0h6v6h-6zm14 0h6v6h-6zM60 4h6v6h-6zm0 14h6v6h-6zm0 14h6v6h-6zm0 14h6v6h-6zM4 60h6v6H4zm14 0h6v6h-6zm14 0h6v6h-6zm14 0h6v6h-6zm14 0h6v6h-6zM46 4h6v6h-6zm0 14h6v6h-6zm0 14h6v6h-6zM4 46h6v6H4zm14 0h6v6h-6zm14 0h6v6h-6zm14 0h6v6h-6zM32 4h6v6h-6zm0 14h6v6h-6zM4 32h6v6H4zm14 0h6v6h-6zm14 0h6v6h-6zM18 4h6v6h-6zM4 18h6v6H4zm14 0h6v6h-6zM4 4h6v6H4z"/></g><defs><clipPath id="a"><path fill="#fff" d="M4 4h90v90H4z"/></clipPath><clipPath id="b"><path fill="#fff" d="M4 88h76v6H4z"/></clipPath></defs></svg>