<svg version="1.1" xmlns="http://www.w3.org/2000/svg" viewBox="0 0 130 130" xml:space="preserve">
<style type="text/css">.st0{fill:#ffc61a;}</style>
	<path class="st0" d="M99.9,64.1c-0.8-0.4-1.8-0.2-2.3,0.5L86,78.3c-0.4,0.5-0.6,1.1-0.4,1.8c0.2,0.6,0.7,1.1,1.3,1.3l4.2,1.2L87,94
		c-0.3,0.9,0,1.8,0.8,2.3c0.3,0.2,0.6,0.3,1,0.3c0.6,0,1.1-0.2,1.4-0.7l13-15.2c0.4-0.5,0.6-1.2,0.4-1.8c-0.2-0.6-0.7-1.1-1.3-1.3
		l-4.3-1.2l2.9-10.2C101.1,65.4,100.7,64.5,99.9,64.1z M95.7,77.7l6,1.7h0c0.1,0,0.1,0.1,0.1,0.1c0,0,0,0.1,0,0.1l-13,15.2
		c0,0-0.1,0-0.2,0c-0.1,0-0.1-0.1-0.1-0.2l4.8-13.3l-6-1.7c0,0-0.1,0-0.1-0.1c0,0,0-0.1,0-0.1l11.6-13.7c0,0,0,0,0.1,0
		c0,0,0,0,0.1,0c0.1,0,0.1,0.1,0.1,0.2L95.7,77.7z"/>
	<path class="st0" d="M66.9,91.3V79.7c0-2.2-1.8-4-4-4H43.6c0,0,0.8-1.6,1.8-2.4c0.4-0.3,0.8-0.5,1.3-0.6l17.6-4.8
		c2.4-0.6,4.4-2.2,5.7-4.4c1.3-2.2,1.6-4.7,0.9-7.1c-0.7-2.4-2.2-4.5-4.5-5.7l-1.6-0.9l1.4-1.2c2.7-2.4,3.9-6,2.9-9.5
		c-0.5-2-1.7-3.7-3.5-5l-1.7-1.3l1.9-0.9c1.7-0.8,3.1-2.1,4.1-3.8c1.3-2.2,1.6-4.7,0.9-7.1c-0.6-2.4-2.2-4.4-4.4-5.7
		c-1.4-0.8-3.1-1.3-4.7-1.3c-0.8,0-1.6,0.1-2.4,0.3l-7.1,1.9l1-2.4c0.8-1.9,0.9-4,0.4-5.9c-1.1-4.1-4.8-6.9-9.1-6.9
		c-0.8,0-1.6,0.1-2.4,0.3L18.9,7.5c-2.4,0.6-4.4,2.2-5.7,4.4c-1.3,2.2-1.6,4.7-0.9,7.1c0.5,2,1.7,3.7,3.5,5l2.2,1.6l-7.9,2.1
		c-2.4,0.6-4.4,2.2-5.7,4.4c-1.3,2.2-1.6,4.7-0.9,7.1c0.5,2,1.7,3.7,3.5,5l1.7,1.3l-1.9,0.9c-1.7,0.8-3.1,2.1-4.1,3.8
		c-1.3,2.2-1.6,4.7-0.9,7.1c0.6,2.4,2.2,4.4,4.4,5.7c1.4,0.8,3.1,1.3,4.7,1.3c0.8,0,1.6-0.1,2.4-0.3L30,59.4l-1.5,2.7
		c-1,1.9-1.6,3.9-1.6,6v7.6H9.5c-2.2,0-4,1.8-4,4v11.6c0,6.7,5,12.6,11.7,13.7l1.1,0.2v12.8l4.7,0l6.3,8.5H43l6.5-8.5h4.6v-12.8
		l1.1-0.2C61.9,103.9,66.9,98,66.9,91.3z M17.6,22.8c-1.7-1-2.9-2.5-3.4-4.4c-0.5-1.9-0.2-3.8,0.7-5.5c1-1.7,2.5-2.9,4.4-3.4
		l23.4-6.1c0.6-0.2,1.3-0.2,1.9-0.2c1.3,0,2.5,0.3,3.7,1c1.7,1,2.9,2.5,3.4,4.4c1,3.9-1.3,7.9-5.2,8.9l-23.4,6.1
		c-0.6,0.2-1.3,0.2-1.9,0.2C20,23.8,18.7,23.5,17.6,22.8z M5.3,38.6c-0.5-1.9-0.2-3.8,0.7-5.5c1-1.7,2.5-2.9,4.4-3.4l49.5-13.3
		c0.6-0.2,1.3-0.3,1.9-0.3c1.3,0,2.5,0.3,3.7,1c1.7,1,2.9,2.6,3.4,4.4c0.5,1.9,0.2,3.8-0.7,5.5c-1,1.7-2.5,2.9-4.4,3.4l-5.9,1.6
		c-0.1,0-0.2,0-0.3,0L13.8,43.9c-0.5,0.1-1,0.2-1.5,0.2c-1.3,0-2.5-0.3-3.6-1C7,42.1,5.8,40.5,5.3,38.6z M12.5,61.9
		c-0.6,0.2-1.2,0.2-1.9,0.2c-1.3,0-2.5-0.3-3.7-1c-1.7-1-2.9-2.6-3.4-4.4c-0.5-1.9-0.2-3.8,0.7-5.5c1-1.7,2.6-2.9,4.4-3.4l5.7-1.5
		l0.2,0c0.1,0,0.2,0,0.3-0.1l43.6-11.7c0.4-0.1,1-0.2,1.6-0.2c1.3,0,2.5,0.3,3.7,1c1.7,1,2.9,2.5,3.4,4.4s0.2,3.8-0.7,5.5
		c-1,1.7-2.6,2.9-4.4,3.4L12.5,61.9z M28.9,68.1c0-4.6,3.1-8.6,7.5-9.8l23.5-6.4c0.6-0.2,1.3-0.3,1.9-0.3c1.3,0,2.5,0.3,3.7,1
		c1.7,1,2.9,2.5,3.4,4.4c1,3.9-1.3,7.9-5.2,8.9l-17.6,4.8c-2,0.5-3.6,2-4.3,4l-0.3,0.9H28.9V68.1z M41.9,124.4l-11.5,0l-4.5-6h20.7
		L41.9,124.4z M52,115.8H20.4v-3.9H52V115.8z M52,109.4H20.4v-3.9H52V109.4z M53,103H19.4c-6.5,0-11.8-5.3-11.8-11.8V79.7
		c0-1,0.8-1.9,1.9-1.9h53.5c1,0,1.9,0.8,1.9,1.9v11.6C64.8,97.8,59.5,103,53,103z"/>
	<path class="st0" d="M121.3,46.6h-2.8V10c0-5-4.1-9-9-9h-0.7c-5,0-9,4.1-9,9v36.6H74.7c-0.5,0-0.9,0.4-1,0.9
		c-0.1,0.6,0.4,1.2,1,1.2h46.6c3,0,5.4,2.4,5.4,5.4v34.3c0,13.9-11.3,25.2-25.2,25.2H61.7c-0.5,0-0.9,0.4-1,0.9
		c-0.1,0.6,0.4,1.2,1,1.2h5.9V128c0,0.6,0.5,1,1,1h24.1c0.6,0,1-0.5,1-1v-12.4h7.9c15,0,27.2-12.2,27.2-27.2V54.1
		C128.8,50,125.4,46.6,121.3,46.6z M116.5,46.6h-14.7V10c0-3.9,3.1-7,7-7h0.7c3.9,0,7,3.2,7,7V46.6z M69.6,127v-11.4h22l0,11.4
		L69.6,127z"/>
</svg>