<?xml version="1.0" encoding="UTF-8"?> <svg xmlns="http://www.w3.org/2000/svg" xmlns:xlink="http://www.w3.org/1999/xlink" id="Layer_2" viewBox="0 0 504 205.89"><defs><style>.cls-1{fill:url(#linear-gradient-2);}.cls-2{fill:url(#linear-gradient);}.cls-3{fill:#231f20;}</style><linearGradient id="linear-gradient" x1="335.61" y1="157.72" x2="338.94" y2="-15.39" gradientTransform="matrix(1, 0, 0, 1, 0, 0)" gradientUnits="userSpaceOnUse"><stop offset="0" stop-color="#ed2024"></stop><stop offset=".12" stop-color="#ed2723"></stop><stop offset=".3" stop-color="#ef3b20"></stop><stop offset=".51" stop-color="#f35c1c"></stop><stop offset=".76" stop-color="#f88a16"></stop><stop offset="1" stop-color="#febf10"></stop></linearGradient><linearGradient id="linear-gradient-2" x1="328.19" y1="157.57" x2="331.51" y2="-15.54" xlink:href="#linear-gradient"></linearGradient></defs><g id="Layer_1-2"><g><path class="cls-3" d="M18.85,97.5h23.46l-6.72,24.76h21.46l6.72-24.76h23.46l-18.85,70.18h-23.46l6.72-25.17H30.18l-6.72,25.17H0L18.85,97.5Z"></path><path class="cls-3" d="M95.05,97.5h23.46l-18.85,70.18h-23.46l18.85-70.18Z"></path><path class="cls-3" d="M149.08,169.18c-4.35,0-8.61-.6-12.78-1.8-4.18-1.2-7.89-3.06-11.13-5.57-3.24-2.51-5.85-5.73-7.82-9.68-1.97-3.94-2.96-8.69-2.96-14.24s1.09-11.16,3.26-16.24c2.17-5.08,5.26-9.52,9.27-13.34,4.01-3.81,8.87-6.82,14.59-9.02s12.11-3.31,19.2-3.31c3.27,0,6.43,.34,9.47,1,3.04,.67,5.83,1.54,8.37,2.61,2.54,1.07,4.8,2.31,6.77,3.71,1.97,1.4,3.56,2.84,4.76,4.31l-14.64,15.04c-2.01-1.87-4.43-3.39-7.27-4.56-2.84-1.17-5.83-1.75-8.97-1.75-3.34,0-6.33,.54-8.97,1.6-2.64,1.07-4.86,2.52-6.67,4.36-1.8,1.84-3.19,4.01-4.16,6.52-.97,2.51-1.45,5.16-1.45,7.97,0,2.21,.37,4.11,1.1,5.71,.73,1.61,1.72,2.96,2.96,4.06,1.24,1.1,2.69,1.92,4.36,2.46,1.67,.53,3.41,.8,5.21,.8,2.41,0,4.44-.37,6.12-1.1l2.31-7.52h-11.53l3.81-14.94h33.79l-10.03,35.71c-3.48,2.07-7.57,3.78-12.28,5.15-4.71,1.37-9.61,2.05-14.69,2.05Z"></path><path class="cls-3" d="M200.92,97.5h23.46l-6.72,24.76h21.46l6.72-24.76h23.46l-18.85,70.18h-23.46l6.72-25.17h-21.46l-6.72,25.17h-23.46l18.85-70.18Z"></path><path class="cls-3" d="M276.91,97.5h58.75l-5.41,20.05h-35.29l-2.41,8.92h32.78l-4.91,18.25h-32.79l-6.12,22.96h-23.46l18.85-70.18Z"></path><path class="cls-2" d="M336.78,60.3c.79,1.74,1.36,2.66,1.36,2.66-.42-.9-.88-1.79-1.36-2.66Z"></path><path class="cls-3" d="M341.38,97.5h23.46l-18.85,70.18h-23.46l18.85-70.18Z"></path><path class="cls-1" d="M339.14,96.9l-16.79,62.53h-4.97s-17.69,.55-28.68-9.67l.72-2.71h31c1.05,0,1.97-.7,2.24-1.72l4.91-18.25c.19-.7,.04-1.44-.4-2.01-.44-.57-1.12-.91-1.84-.91h-29.76l1.16-4.29h33.52c1.05,0,1.97-.7,2.24-1.72l5.41-20.05c.19-.7,.04-1.44-.4-2.01-.44-.57-1.12-.91-1.84-.91h-18.54c4.39-10.09,1.27-22.7-3.1-32.21,0,0-25.45-36.84,14.74-62.97-5.38,3.5-8.87,13.05-10.17,18.84-3.85,17.16,10.68,27.95,18.19,41.47,.79,1.74,1.36,2.66,1.36,2.66-.42-.9-.88-1.79-1.36-2.66-2.49-5.51-7.08-19.19-1.99-37.53-1.87,6.73,4.24,18.71,7.45,24.07,5.68,9.49,15.98,15.43,20.97,25.39,3.68,7.34,4.44,15.58,3.2,23.57-.43-.4-.99-.63-1.58-.63h-23.46c-1.05,0-1.97,.7-2.24,1.72Zm-35.16-3.79c2.01-34.16-23.26-25.45-23.26-25.45,21.62,1.34,11.87,25.45,11.87,25.45-.29,.71-.58,1.4-.86,2.07h12.25c-.04-.65-.04-1.34,0-2.08Zm73.01-10.04c-.9,5.03-1.93,8.92-3,11.92h4.59c-.53-7.16-1.59-11.92-1.59-11.92Zm-11.71,21.73l-13.58,50.56c1.13-.53,2.22-1.1,3.27-1.69l13.34-49.67c-1.23,.81-2.3,.9-3.03,.81Z"></path><path class="cls-3" d="M372.66,97.5h27.37c6.48,0,11.83,.67,16.04,2,4.21,1.34,7.49,3.18,9.83,5.52,1.94,1.94,3.34,4.16,4.21,6.67,.87,2.51,1.3,5.16,1.3,7.97s-.37,5.36-1.1,7.87c-.74,2.51-1.89,4.83-3.46,6.97-1.57,2.14-3.59,4.04-6.07,5.71-2.47,1.67-5.45,3.04-8.92,4.11l9.73,23.36h-25.27l-7.82-20.05h-5.82l-5.41,20.05h-23.46l18.85-70.18Zm22.96,33.39c3.94,0,6.92-.78,8.92-2.36,2.01-1.57,3.01-3.46,3.01-5.66,0-1.47-.5-2.71-1.5-3.71-1.34-1.34-3.64-2.01-6.92-2.01h-8.32l-3.71,13.74h8.52Z"></path><path class="cls-3" d="M444.14,97.5h59.86l-5.21,19.25h-36.79l-1.9,7.12h34.29l-4.51,16.94h-34.29l-2.11,7.62h37.3l-5.11,19.25h-60.36l18.85-70.18Z"></path><g><path class="cls-3" d="M102.7,182.96h16.55l-.97,3.57h-12.59l-1.58,5.86h11.17l-.97,3.51h-11.17l-1.61,6.02h12.78l-.97,3.57h-16.71l6.05-22.54Z"></path><path class="cls-3" d="M123.95,182.96h3.67l7.63,15.94,4.31-15.94h3.9l-6.05,22.54h-3.32l-7.89-16.39-4.38,16.39h-3.93l6.05-22.54Z"></path><path class="cls-3" d="M149.26,182.96h16.55l-.97,3.57h-12.59l-1.58,5.86h11.17l-.97,3.51h-11.17l-1.61,6.02h12.78l-.97,3.57h-16.71l6.05-22.54Z"></path><path class="cls-3" d="M170.5,182.96h8.18c3.11,0,5.38,.73,6.81,2.19,1.09,1.09,1.63,2.51,1.63,4.25,0,1.05-.18,2.01-.53,2.88s-.86,1.63-1.52,2.27c-.66,.69-1.46,1.25-2.41,1.69s-2.02,.78-3.22,1.01l4.19,8.24h-4.54l-3.86-7.86h-4.7l-2.09,7.86h-3.99l6.05-22.54Zm6.09,11.17c1.2,0,2.25-.15,3.16-.44s1.62-.72,2.16-1.28c.75-.75,1.13-1.66,1.13-2.72,0-.8-.27-1.49-.8-2.07-.36-.36-.86-.64-1.48-.82-.62-.18-1.38-.28-2.29-.28h-4.93l-2.06,7.6h5.12Z"></path><path class="cls-3" d="M199.84,205.89c-1.33,0-2.61-.2-3.85-.61-1.23-.41-2.33-1.01-3.3-1.82-.97-.8-1.74-1.81-2.32-3.03-.58-1.21-.87-2.62-.87-4.23,0-1.74,.35-3.43,1.06-5.07,.71-1.64,1.68-3.1,2.93-4.36,1.24-1.27,2.72-2.28,4.43-3.04,1.71-.76,3.56-1.14,5.55-1.14,1.18,0,2.24,.11,3.17,.32,.93,.22,1.77,.51,2.5,.89,.73,.38,1.36,.8,1.88,1.29,.53,.48,.98,.98,1.37,1.5l-2.96,2.51c-.32-.39-.68-.76-1.08-1.11-.4-.36-.85-.66-1.35-.92-.5-.26-1.07-.46-1.69-.61s-1.33-.23-2.12-.23c-1.35,0-2.61,.28-3.78,.82s-2.18,1.28-3.03,2.19c-.85,.92-1.51,1.96-2,3.15-.48,1.18-.72,2.42-.72,3.71,0,.99,.16,1.87,.48,2.65,.32,.77,.77,1.42,1.35,1.95,.58,.53,1.26,.93,2.04,1.21,.78,.28,1.64,.42,2.56,.42,1.03,0,1.94-.12,2.72-.36,.78-.24,1.47-.51,2.04-.81l1.38-4.79h-5.76l.93-3.45h9.59l-3.06,10.79c-1.16,.69-2.39,1.22-3.69,1.61-1.3,.39-2.77,.58-4.43,.58Z"></path><path class="cls-3" d="M220.77,196.55l-5.02-13.59h4.38l3.41,10.18,8.92-10.18h4.89l-12.72,14.01-2.29,8.53h-3.96l2.38-8.95Z"></path><path class="cls-3" d="M252.58,205.82c-2.15,0-4.02-.36-5.62-1.08-1.6-.72-2.91-1.77-3.94-3.14l2.99-2.48c.92,1.05,1.92,1.85,2.99,2.38,1.07,.54,2.34,.8,3.8,.8,1.27,0,2.31-.28,3.12-.85,.82-.57,1.22-1.33,1.22-2.27,0-.34-.06-.65-.19-.93-.13-.28-.35-.55-.68-.8-.32-.26-.75-.52-1.29-.79-.54-.27-1.2-.56-2-.89-.86-.34-1.64-.71-2.35-1.09-.71-.39-1.32-.82-1.84-1.29-.52-.47-.91-1.01-1.19-1.61-.28-.6-.42-1.29-.42-2.06,0-1.05,.23-2.02,.68-2.9s1.07-1.63,1.85-2.24,1.7-1.09,2.75-1.43c1.05-.34,2.18-.52,3.38-.52,1.89,0,3.51,.31,4.86,.92,1.35,.61,2.49,1.43,3.41,2.46l-2.77,2.7c-.86-.84-1.74-1.48-2.66-1.92-.91-.44-1.96-.66-3.14-.66-.67,0-1.26,.08-1.77,.26-.52,.17-.95,.39-1.3,.66-.35,.27-.63,.58-.82,.93-.19,.35-.29,.72-.29,1.11,0,.36,.07,.69,.22,.97,.15,.28,.4,.55,.74,.8s.79,.52,1.35,.79c.56,.27,1.24,.56,2.06,.89,.86,.34,1.64,.7,2.33,1.08,.7,.38,1.29,.8,1.77,1.29,.48,.48,.85,1.03,1.11,1.63,.26,.6,.39,1.29,.39,2.06,0,1.1-.24,2.09-.71,2.98-.47,.89-1.11,1.65-1.9,2.29s-1.73,1.12-2.8,1.45c-1.07,.33-2.2,.5-3.38,.5Z"></path><path class="cls-3" d="M270.22,182.96h16.55l-.97,3.57h-12.59l-1.58,5.86h11.17l-.97,3.51h-11.17l-1.61,6.02h12.78l-.97,3.57h-16.71l6.05-22.54Z"></path><path class="cls-3" d="M291.47,182.96h8.18c3.11,0,5.38,.73,6.81,2.19,1.09,1.09,1.63,2.51,1.63,4.25,0,1.05-.18,2.01-.53,2.88s-.86,1.63-1.52,2.27c-.66,.69-1.46,1.25-2.41,1.69s-2.02,.78-3.22,1.01l4.19,8.24h-4.54l-3.86-7.86h-4.7l-2.09,7.86h-3.99l6.05-22.54Zm6.09,11.17c1.2,0,2.25-.15,3.16-.44s1.62-.72,2.16-1.28c.75-.75,1.13-1.66,1.13-2.72,0-.8-.27-1.49-.8-2.07-.36-.36-.86-.64-1.48-.82-.62-.18-1.38-.28-2.29-.28h-4.93l-2.06,7.6h5.12Z"></path><path class="cls-3" d="M312.27,182.96h4.25l2.03,17.23,11.3-17.23h4.48l-15.36,22.7h-3.51l-3.19-22.7Z"></path><path class="cls-3" d="M338.19,182.96h3.99l-6.05,22.54h-3.99l6.05-22.54Z"></path><path class="cls-3" d="M354.07,205.89c-1.46,0-2.81-.22-4.04-.66-1.23-.44-2.3-1.08-3.21-1.92-.91-.84-1.61-1.85-2.13-3.03-.51-1.18-.77-2.51-.77-3.99,0-1.8,.35-3.54,1.05-5.2,.7-1.66,1.67-3.12,2.9-4.38,1.23-1.26,2.67-2.26,4.32-3.01,1.65-.75,3.42-1.13,5.31-1.13,2.15,0,3.94,.44,5.38,1.3,1.44,.87,2.58,2.04,3.41,3.52l-3.28,2.22c-.34-.51-.71-.98-1.09-1.4-.39-.42-.82-.78-1.29-1.08-.47-.3-1-.53-1.59-.69-.59-.16-1.25-.24-1.98-.24-1.2,0-2.35,.27-3.45,.8-1.1,.54-2.06,1.26-2.88,2.17s-1.49,1.97-1.98,3.17c-.49,1.2-.74,2.46-.74,3.77,0,.92,.15,1.76,.45,2.51s.72,1.39,1.27,1.93c.55,.54,1.19,.95,1.93,1.24s1.56,.44,2.46,.44c1.29,0,2.38-.24,3.28-.71,.9-.47,1.8-1.09,2.7-1.87l2.61,2.64c-1.07,1.03-2.3,1.89-3.67,2.56-1.37,.68-3.04,1.01-4.99,1.01Z"></path><path class="cls-3" d="M371.68,182.96h16.55l-.97,3.57h-12.59l-1.58,5.86h11.17l-.97,3.51h-11.17l-1.61,6.02h12.78l-.97,3.57h-16.71l6.05-22.54Z"></path><path class="cls-3" d="M395.79,205.82c-2.15,0-4.02-.36-5.62-1.08-1.6-.72-2.91-1.77-3.94-3.14l2.99-2.48c.92,1.05,1.92,1.85,2.99,2.38,1.07,.54,2.34,.8,3.8,.8,1.27,0,2.31-.28,3.12-.85,.81-.57,1.22-1.33,1.22-2.27,0-.34-.06-.65-.19-.93-.13-.28-.35-.55-.68-.8s-.75-.52-1.29-.79c-.54-.27-1.2-.56-2-.89-.86-.34-1.64-.71-2.35-1.09-.71-.39-1.32-.82-1.83-1.29-.52-.47-.91-1.01-1.19-1.61-.28-.6-.42-1.29-.42-2.06,0-1.05,.22-2.02,.68-2.9,.45-.88,1.07-1.63,1.85-2.24,.78-.61,1.7-1.09,2.75-1.43s2.18-.52,3.38-.52c1.89,0,3.51,.31,4.86,.92,1.35,.61,2.49,1.43,3.41,2.46l-2.77,2.7c-.86-.84-1.75-1.48-2.66-1.92-.91-.44-1.96-.66-3.14-.66-.67,0-1.25,.08-1.77,.26-.52,.17-.95,.39-1.3,.66-.36,.27-.63,.58-.82,.93-.19,.35-.29,.72-.29,1.11,0,.36,.08,.69,.22,.97,.15,.28,.4,.55,.74,.8,.34,.26,.79,.52,1.35,.79,.56,.27,1.24,.56,2.06,.89,.86,.34,1.64,.7,2.33,1.08s1.29,.8,1.77,1.29c.48,.48,.85,1.03,1.11,1.63,.26,.6,.39,1.29,.39,2.06,0,1.1-.24,2.09-.71,2.98-.47,.89-1.11,1.65-1.9,2.29-.79,.63-1.73,1.12-2.8,1.45-1.07,.33-2.2,.5-3.38,.5Z"></path></g></g></g></svg> 